<?xml version="1.0" standalone="no"?>
<!DOCTYPE svg PUBLIC "-//W3C//DTD SVG 20010904//EN"
 "http://www.w3.org/TR/2001/REC-SVG-20010904/DTD/svg10.dtd">
<svg version="1.0" xmlns="http://www.w3.org/2000/svg"
 width="512.000000pt" height="512.000000pt" viewBox="0 0 512.000000 512.000000"
 preserveAspectRatio="xMidYMid meet">

<g transform="translate(0.000000,512.000000) scale(0.100000,-0.100000)"
fill="#000000" stroke="none">
<path d="M838 3774 c-35 -19 -48 -43 -48 -91 0 -31 7 -46 31 -69 l30 -29 1532
-3 c843 -2 1552 0 1576 3 94 14 132 101 72 167 l-29 33 -1569 2 c-1370 2
-1571 0 -1595 -13z"/>
<path d="M819 2631 c-23 -23 -29 -38 -29 -71 0 -33 6 -48 29 -71 l29 -29 1577
0 1576 0 24 24 c45 45 45 107 0 152 l-24 24 -1576 0 -1577 0 -29 -29z"/>
<path d="M865 1533 c-11 -3 -32 -17 -47 -31 -50 -47 -34 -135 29 -161 21 -8
430 -11 1591 -9 l1564 3 29 33 c53 59 29 140 -49 162 -37 10 -3074 13 -3117 3z"/>
</g>
</svg>
